<?xml version="1.0" encoding="UTF-8" standalone="no"?>
<svg width="24px" height="17px" viewBox="0 0 24 17" version="1.1" xmlns="http://www.w3.org/2000/svg" xmlns:xlink="http://www.w3.org/1999/xlink" xmlns:sketch="http://www.bohemiancoding.com/sketch/ns">
    <!-- Generator: Sketch 3.4.4 (17249) - http://www.bohemiancoding.com/sketch -->
    <title>pictures.colors-default</title>
    <desc>Created with Sketch.</desc>
    <defs></defs>
    <g id="Page-1" stroke="none" stroke-width="1" fill="none" fill-rule="evenodd" sketch:type="MSPage">
        <g id="pictures.colors-default" sketch:type="MSLayerGroup" fill="#999999">
            <path d="M15.4,5.167 C12.93,5.167 10.927,7.154 10.927,9.606 C10.927,12.058 12.929,14.044 15.4,14.044 C17.87,14.044 19.872,12.057 19.872,9.606 C19.872,7.155 17.87,5.167 15.4,5.167 L15.4,5.167 Z M15.4,12.21 C13.95,12.21 12.775,11.043 12.775,9.605 C12.775,8.167 13.95,7.001 15.4,7.001 C16.849,7.001 18.024,8.167 18.024,9.605 C18.024,11.043 16.85,12.21 15.4,12.21 L15.4,12.21 Z M8.466,1.43 L7.214,0 L3.539,0 L2.286,1.43 L0,1.43 L0,17 L24,17 L24,1.43 L8.466,1.43 L8.466,1.43 Z M7.541,4.539 L4.125,4.539 C3.721,4.539 3.394,4.214 3.394,3.813 C3.394,3.413 3.721,3.087 4.125,3.087 L7.542,3.087 C7.946,3.087 8.273,3.412 8.273,3.813 C8.272,4.214 7.945,4.539 7.541,4.539 L7.541,4.539 Z M15.4,15.405 C12.178,15.405 9.557,12.803 9.557,9.606 C9.557,6.409 12.178,3.806 15.4,3.806 C18.622,3.806 21.243,6.408 21.243,9.606 C21.243,12.804 18.622,15.405 15.4,15.405 L15.4,15.405 Z M22.75,4.025 C22.75,4.238 22.577,4.41 22.362,4.41 L21.462,4.41 C21.248,4.41 21.074,4.238 21.074,4.025 L21.074,3.132 C21.074,2.92 21.248,2.747 21.462,2.747 L22.362,2.747 C22.576,2.747 22.75,2.919 22.75,3.132 L22.75,4.025 L22.75,4.025 Z" id="Shape" sketch:type="MSShapeGroup"></path>
        </g>
    </g>
</svg>