<?xml version="1.0" encoding="utf-8"?>
<!-- Generator: Adobe Illustrator 16.0.4, SVG Export Plug-In . SVG Version: 6.00 Build 0)  -->
<!DOCTYPE svg PUBLIC "-//W3C//DTD SVG 1.1//EN" "http://www.w3.org/Graphics/SVG/1.1/DTD/svg11.dtd">
<svg version="1.1" id="Layer_1" xmlns:sketch="http://www.bohemiancoding.com/sketch/ns"
	 xmlns="http://www.w3.org/2000/svg" xmlns:xlink="http://www.w3.org/1999/xlink" x="0px" y="0px" width="19.75px" height="19.75px"
	 viewBox="0.88 0.864 19.75 19.75" enable-background="new 0.88 0.864 19.75 19.75" xml:space="preserve">
<circle id="Oval" sketch:type="MSShapeGroup" fill="none" stroke="#417DB9" cx="10.755" cy="10.739" r="9.375">
</circle>
<path id="info-grey-light_1_" sketch:type="MSShapeGroup" fill="#417DB9" d="M10.157,9.97c0.104-0.274-0.028-0.412-0.149-0.412
	c-0.56,0-1.284,1.326-1.555,1.326c-0.107,0-0.198-0.105-0.198-0.199c0-0.273,0.666-0.916,0.859-1.112
	c0.604-0.579,1.393-1.024,2.267-1.024c0.648,0,1.344,0.396,0.805,1.879l-1.09,2.978c-0.091,0.229-0.257,0.608-0.257,0.854
	c0,0.106,0.062,0.213,0.183,0.213c0.451,0,1.283-1.299,1.492-1.299c0.076,0,0.182,0.098,0.182,0.229c0,0.44-1.766,2.338-3.292,2.338
	c-0.545,0-0.92-0.258-0.92-0.84c0-0.733,0.512-1.984,0.617-2.246L10.157,9.97L10.157,9.97L10.157,9.97z M10.974,6.962
	c0-0.672,0.573-1.223,1.24-1.223c0.604,0,1.041,0.412,1.041,1.04C13.255,7.481,12.682,8,12,8
	C11.381,7.999,10.974,7.587,10.974,6.962L10.974,6.962L10.974,6.962z"/>
</svg>
