<?xml version="1.0" encoding="UTF-8" standalone="no"?>
<svg width="24px" height="16px" viewBox="0 0 24 16" version="1.1" xmlns="http://www.w3.org/2000/svg" xmlns:xlink="http://www.w3.org/1999/xlink" xmlns:sketch="http://www.bohemiancoding.com/sketch/ns">
    <!-- Generator: Sketch 3.4.4 (17249) - http://www.bohemiancoding.com/sketch -->
    <title>quote-aqua</title>
    <desc>Created with Sketch.</desc>
    <defs></defs>
    <g id="Page-1" stroke="none" stroke-width="1" fill="none" fill-rule="evenodd" sketch:type="MSPage">
        <g id="quote-aqua" sketch:type="MSLayerGroup" fill="#87D4D1">
            <path d="M12.432,16 L9.989,15.484 C7.655,14.993 5.727,14.187 4.259,13.093 C2.789,11.997 1.699,10.751 1.021,9.39 C0.343,8.03 0,6.706 0,5.456 C0,4.591 0.19,3.74 0.564,2.928 C0.944,2.103 1.525,1.406 2.292,0.852 C3.075,0.287 4.047,0 5.182,0 C6.076,0 6.912,0.215 7.67,0.639 C8.428,1.065 9.026,1.647 9.447,2.37 C9.867,3.092 10.08,3.87 10.08,4.683 C10.08,5.621 9.729,6.537 9.008,7.485 C8.03,8.77 6.556,9.051 5.858,9.109 C5.942,12.174 10.246,14.724 10.291,14.751 L12.432,16 L12.432,16 Z M5.182,0.802 C4.23,0.802 3.425,1.034 2.788,1.494 C2.136,1.965 1.643,2.557 1.321,3.254 C0.995,3.963 0.829,4.704 0.829,5.456 C0.829,6.584 1.145,7.791 1.767,9.043 C2.389,10.292 3.397,11.441 4.765,12.46 C5.669,13.134 6.767,13.691 8.046,14.128 C6.603,12.909 4.858,10.947 5.041,8.691 L5.073,8.301 L5.528,8.322 C5.831,8.322 7.389,8.259 8.339,7.01 C8.96,6.195 9.25,5.456 9.25,4.684 C9.25,4.01 9.073,3.364 8.724,2.764 C8.376,2.167 7.882,1.685 7.254,1.332 C6.625,0.98 5.927,0.802 5.182,0.802 L5.182,0.802 Z" id="Shape" sketch:type="MSShapeGroup"></path>
            <path d="M24,16 L21.559,15.484 C19.225,14.993 17.295,14.187 15.829,13.093 C14.358,11.997 13.268,10.751 12.591,9.39 C11.914,8.028 11.571,6.704 11.571,5.454 C11.571,4.589 11.761,3.738 12.135,2.926 C12.517,2.101 13.097,1.404 13.864,0.85 C14.645,0.287 15.616,0 16.75,0 C17.645,0 18.48,0.215 19.238,0.639 C19.996,1.065 20.592,1.647 21.015,2.37 C21.435,3.092 21.648,3.87 21.648,4.683 C21.648,5.621 21.295,6.537 20.576,7.485 C19.6,8.77 18.125,9.051 17.428,9.109 C17.512,12.174 21.815,14.724 21.86,14.751 L24,16 L24,16 Z M16.75,0.802 C15.799,0.802 14.994,1.034 14.357,1.494 C13.705,1.965 13.211,2.557 12.89,3.254 C12.564,3.963 12.397,4.705 12.397,5.457 C12.397,6.585 12.712,7.792 13.335,9.044 C13.957,10.293 14.966,11.441 16.333,12.461 C17.235,13.135 18.335,13.691 19.613,14.129 C18.171,12.91 16.425,10.948 16.608,8.691 L16.639,8.303 L17.094,8.324 C17.397,8.324 18.955,8.261 19.906,7.012 C20.526,6.195 20.815,5.456 20.815,4.684 C20.815,4.01 20.639,3.364 20.291,2.764 C19.942,2.167 19.449,1.685 18.819,1.332 C18.193,0.98 17.496,0.802 16.75,0.802 L16.75,0.802 Z" id="Shape" sketch:type="MSShapeGroup"></path>
        </g>
    </g>
</svg>